<?xml version="1.0" encoding="utf-8"?>
<!-- Generator: Adobe Illustrator 23.0.1, SVG Export Plug-In . SVG Version: 6.00 Build 0)  -->
<svg version="1.1" id="Layer_1" xmlns="http://www.w3.org/2000/svg" xmlns:xlink="http://www.w3.org/1999/xlink" x="0px" y="0px"
	 viewBox="0 0 512 512" style="enable-background:new 0 0 512 512;" xml:space="preserve">
<path d="M504.6,241.7L351.8,88.9c-3.8-3.8-8.9-5.9-14.3-5.9c-5.4,0-10.5,2.1-14.3,5.9s-5.9,8.9-5.9,14.3c0,5.4,2.1,10.5,5.9,14.3
	l118.4,118.4H21.7c-11.1,0-20.2,9.1-20.2,20.2s9.1,20.2,20.2,20.2h419.9L323.2,394.5c-3.8,3.8-5.9,8.9-5.9,14.3
	c0,5.4,2.1,10.5,5.9,14.3c3.8,3.8,8.9,5.9,14.3,5.9c5.4,0,10.5-2.1,14.3-5.9l152.8-152.8C512.5,262.4,512.5,249.6,504.6,241.7z"/>
</svg>
